<svg xmlns="http://www.w3.org/2000/svg" xmlns:xlink="http://www.w3.org/1999/xlink" viewBox="0 0 286.12 173.93"><defs><linearGradient id="a" x1="2.66" y1="768.09" x2="2.66" y2="767.26" gradientTransform="matrix(286.12, 0, 0, -173.93, -249.12, 133918.54)" gradientUnits="userSpaceOnUse"><stop offset="0" stop-color="#cde490"/><stop offset="1" stop-color="#9fc657" stop-opacity="0"/></linearGradient></defs><title>lion</title><path d="M654.66,348.91c-1.77-1.65.64-2.35-12.65-9.76l-.55-.3a24.46,24.46,0,0,0-1.21-4.55c-1.42-3-3.89-5.69-5.52-8.65,1.69-2.83.9-5.28.5-8.28,1.5-.65-2.1-5.63-2.72-6.74a10.93,10.93,0,0,0-4.71-4.78c-6.54-3.36-15.26-3.7-22.42-2.75-6.65.89-15.25,2.64-20.44,7.1a34.66,34.66,0,0,1-8.47,5.56c-2.5,1.19-6.67,3-6.9,6.27-4.31,3.78-12,12.89-13.54,16.51-3.46,1.37-6.69,3.82-9.78,5.85-1.82,1.2-3.64,2.42-5.42,3.67-.87.61-11.17,3.89-14.89,3.89-10.7-.58-21.33.21-31.75-2.85-4.59-1.34-8.69-3.33-13.51-3.85-5.57-.6-11.17-.15-16.76-.11l-2.63,0a156.65,156.65,0,0,0-19.13.85c-6.43.81-12.65,2.73-18.89,4.42-9.84,2.67-21.34,5.76-30.9.56-7.75-4.21-13.15-13.22-14.31-21.84-1.1-8.11,3.31-21.42,13.68-20.24,4,.46,7.3,2.25,11.26.74,3.09-1.17,6.62-2.78,9-5.08,2.9-2.76-.15-4.93-3-6.26-5.29-2.46-9.48-1-14.6.85-9.53,3.52-18.94,7.12-23.15,17.14-3.31,7.88-2.81,17.16.16,25.06,3.75,9.93,11.83,19.52,22.13,22.91,12.59,4.15,26.67-1.68,39.35-2.6,0,9.19-2.25,18.34-2.81,27.52a51.91,51.91,0,0,1-7.44,24.11,53.78,53.78,0,0,1-7.25,10c-2.2,2.34-5.46,4-7.38,6.56-2.08,2.75-.81,5.93-.06,9,1.2,4.79,1.74,9.72,3.18,14.45l.36,1.2c1,3.47,2.09,7.22,4.41,10.08,2.95,3.64,7.77,4.15,12.16,4.7,3.64.46,11.2,1.15,13.37-2.82,1.75-3.21-1-8.39-4.4-9.26a14,14,0,0,0-4-.56c-4.81,0-7.5-8.49-7.53-12.49,0-4.91,3.79-8.18,7.53-10.72,5.28-3.59,10.76-6.73,15.87-10.6,5.48-4.16,10.79-8.56,16.52-12.4-1.12,7.9-1.49,13.94-6.69,20.36-4.19,5.18-5.87,9.39-1.1,15l1.54,1.84c4.23,5.06,10,12,15.6,14.76,3.82,3.12,8.48,4.39,13.33,4.8,2.62.23,8.62,1.38,10.21-1.64s-1.93-6.78-4-8.5c-2.51-2.14-5.12-2.18-8.1-3.1-7.89-2.42-11.7-10.12-7.88-17.76,2.36-4.73,6.41-8.47,9.13-13,3-5,5.5-10.23,8.39-15.28,4.59,4.77,13.68,6.78,19.86,8.44,3.87,1,8,.78,12,.71,7.09-.11,14.16-.65,21.25-.68,1.12,5.61.15,12.61-.48,18.25-.27,2.5-.7,5.16-3.36,6-4,1.24-6.5.86-9.66,4-3.37,3.37-6.85,7.58-8.3,12.2-.89,2.85-1.19,8.2,2.71,8.73s8.8-1.52,11-4.65c1.16-1.66,1.66-3.85,3.32-5.11s3.88-1.43,5.75-1.77c4.19-.76,8.39-1.81,11.21-5.25,2.69-3.28,3.6-7.72,4.63-11.72l0-.19c1.69-6.55,4.91-12.62,6.39-19.23,3.5,4.49,5,10.53,7.6,15.53,2.85,5.43,5.93,10.78,8.13,16.51,3,7.75,6.07,19.82,15.94,21,4,.46,24.47,1.57,19.09-7.09-2.67-4.3-7-4.91-11.47-5.84S607,452.5,606,448.63c-1.67-6.62-3.61-13.2-4.46-20-.66-5.26.19-8.67,3.66-12.73l0,.3c.35,3.3,3.21-3.25,3.27-3.39-.08.75,0,1.41.87,1.54,1.17.18,1.22-2.09,1.39-2.76a95.5,95.5,0,0,1,3.14-9.08c.42,2,1.78-.29,2-.85.72-1.94.42-4.64.81-6.7,1.81,2.84,5.67-6.26,5.91-7.28h0c1.77.17,2-7.46,2.34-8.76a14.92,14.92,0,0,1,2.58-5.39c3.82.5,16.77,2,18.67-1.33,2.24-3.88,2.36-6.94.36-7.3,0,0,3.41.59,4.47-2.35s2.35-7.82,1.88-8.06S656.42,350.56,654.66,348.91Z" transform="translate(-369 -297)" fill="url(#a)"/></svg>