<svg xmlns="http://www.w3.org/2000/svg" viewBox="0 0 183.23 225.72"><title>plant_3</title><path d="M529,487.3a.58.58,0,0,0,.66.27.57.57,0,0,0,.43-.57c0-.57-.32-50.92-4-81.3l3.67,6.21c.05,13.93,1.46,50,14,72a.57.57,0,0,0,.7.26.58.58,0,0,0,.39-.63c-.07-.51-5.88-40.67-10.65-64.1l4.86,8.22c1,12.8,4.69,44.87,18.35,59.57a.59.59,0,0,0,1-.54c-.09-.37-6.54-27.49-12.58-47.54l8.65,14.65c3.1,10.16,13,40.59,20.83,43.68a.57.57,0,0,0,.61-.11.6.6,0,0,0,.16-.61c-.1-.31-10.21-31.93-21.54-46.71a.63.63,0,0,0-.36-.21q-2.75-5.5-5.52-11c10.69,15.47,34.3,34.22,34.55,34.41a.58.58,0,0,0,.94-.47c-.15-9.93-34.66-35.86-36.12-37a.6.6,0,0,0-.75,0,.91.91,0,0,0-.08.13q-2.93-5.75-5.87-11.5c13.11,13.55,47.91,41.06,48.28,41.35a.59.59,0,0,0,.91-.68c-9.52-23.4-50.57-44.09-51-44.3,0,0,0,0-.07,0l-.59-1.17c-2.18-4.18-4.41-8.35-6.61-12.52,14.59,11.72,62.95,41.63,63.46,41.94a.58.58,0,0,0,.74-.1.59.59,0,0,0,0-.75c-18.94-25.39-65.15-43.55-65.61-43.73h0c-1.84-3.49-3.66-7-5.53-10.47,23.35,16.65,76.11,42.73,76.66,43a.58.58,0,0,0,.7-.14.59.59,0,0,0,0-.72c-14.61-21.35-70.94-42.21-79-45.12-1.88-3.5-3.81-7-5.72-10.44,23.46,14.53,83.81,39.45,84.44,39.71a.61.61,0,0,0,.7-.19.6.6,0,0,0,0-.72c-18.52-22.85-79.4-39.44-86.49-41.31-1.58-2.86-3.11-5.75-4.71-8.61-.81-1.46-1.63-2.91-2.46-4.37,22.62,13.12,91.52,38.64,92.22,38.91a.59.59,0,0,0,.69-.22.59.59,0,0,0,0-.72C574.56,372,509,363.3,508.29,363.21h0q-1.74-3-3.47-6.08c-1.16-2-2.35-4.05-3.52-6.08,25,11.84,98.52,33,99.28,33.22a.6.6,0,0,0,.67-.27.58.58,0,0,0-.09-.71c-27.49-27.93-93.91-33.83-101.1-34.4-.8-1.36-1.56-2.74-2.37-4.09l-3.79-6.41c26.33,7.82,102.68,17.32,103.47,17.41a.57.57,0,0,0,.61-.36.58.58,0,0,0-.19-.69c-31.13-23-96.55-18.89-105-18.24l-2.35-4L483,320.36c-1.72-2.75-3.46-5.48-5.21-8.22,25.64,3,95.74,0,96.47-.06a.6.6,0,0,0,.55-.47.58.58,0,0,0-.31-.64c-31.16-15.84-88.14-3.05-97.88-.68-2-3.19-4.12-6.36-6.2-9.52,23.63-.44,81.78-9.9,82.4-10a.57.57,0,0,0,.49-.52.59.59,0,0,0-.38-.61c-27.44-10.08-72.7,5-83.88,9l-2.64-4c18.55-3.59,61.78-18.29,62.25-18.45a.59.59,0,0,0-.08-1.13c-22.2-4.16-54.5,12.66-63.48,17.68-4.53-6.7-9.17-13.33-14-19.83a.15.15,0,0,0,0-.06,2.93,2.93,0,1,0-4.6,3.62l0,0c4.88,6.23,9.58,12.61,14.2,19.06-2.87,2.33-33.57,27.73-40,51.78-.29,1.06-.53,2.12-.71,3.17a.58.58,0,0,0,1,.47c.33-.4,32.36-39.61,40.49-54.32.48.66,1,1.31,1.43,2l1.73,2.93c-6.17,7.24-29,35.24-36.06,61.62a57,57,0,0,0-2.1,14.21.58.58,0,0,0,1.09.29c.32-.54,29.69-52,38.36-73.94l4.58,7.78c-6,9.17-22.38,35.52-29.4,61.73-2.61,9.73-3.93,19.44-3,28.24a.58.58,0,0,0,.5.51.57.57,0,0,0,.62-.35c.27-.65,25.43-60,33.06-87.06l6.2,10.51c-4.42,8.45-15.27,30.44-21.64,54.21-4.24,15.84-6.49,32.47-3.52,46.39a.58.58,0,0,0,1.13.05c.22-.72,20.78-67.09,26.08-97.17l6.25,10.59a300.22,300.22,0,0,0-14.45,40.94c-5.31,19.83-8.67,42.5-3.69,60.12a.6.6,0,0,0,.58.43.64.64,0,0,0,.56-.45c.17-.72,15.73-65.64,19.49-96.82l6.61,11.21c-1.37,4-3.65,11-6,19.74-6.28,23.43-13,59.41-3.75,83.76a.58.58,0,0,0,.61.37.59.59,0,0,0,.52-.49c.11-.75,10.23-68.32,11.07-99.23l5.3,9c-4.24,16.06-15.29,65.24-1.37,97a.59.59,0,0,0,1.12-.2c0-.68,4.49-60.26,3.56-91.18l7.15,12.12c-2.63,17.28-9,67.77,2.37,90.81a.57.57,0,0,0,.64.31.58.58,0,0,0,.47-.55c0-.62,2.06-54.36-.11-84.87l5,8.57C521,416.67,517.63,467.15,529,487.3Z" transform="translate(-419.93 -271.81)" fill="#d2d6ed" opacity="0.2" style="isolation:isolate"/></svg>