<?xml version="1.0" encoding="UTF-8"?>
<svg width="307px" height="629px" viewBox="0 0 307 629" version="1.1" xmlns="http://www.w3.org/2000/svg" xmlns:xlink="http://www.w3.org/1999/xlink">
    <!-- Generator: Sketch 50 (54983) - http://www.bohemiancoding.com/sketch -->
    <title>Group</title>
    <desc>Created with Sketch.</desc>
    <defs>
        <path d="M270.047283,122.431774 C261.563511,112.410087 250.343038,111.407918 244.322296,111.741974 L231.733472,112.07603 C253.627079,94.7051045 274.699675,68.9827722 278.804726,37.9155396 C279.625736,32.2365831 268.678933,34.5749769 267.857923,39.5858209 C264.026542,67.9806034 244.595966,92.7007669 224.07071,108.735468 C224.07071,108.401411 224.07071,108.067355 224.07071,108.067355 C224.07071,108.067355 224.07071,108.067355 224.07071,108.067355 C224.07071,100.718117 234.196503,85.0174729 226.53374,62.3016469 C220.512999,43.9285523 202.998113,36.9133708 172.620734,44.5966649 C162.768611,46.9350587 146.074736,57.2908029 146.074736,57.2908029 C146.074736,57.2908029 158.93723,58.627028 172.073394,67.9806034 C176.452115,70.9871097 183.020197,75.9979537 187.946259,83.0131353 C193.967001,92.0326544 196.703701,104.392736 193.41966,106.063018 C187.398919,109.069524 173.989085,84.3493603 163.589622,75.3298412 C156.747869,69.3168284 146.895747,64.974097 137.864634,67.3124908 C129.928201,69.6508847 123.63379,77.668235 117.886718,85.6855854 C114.329007,90.6964293 110.771296,95.7072733 107.213585,101.052174 C106.392574,102.388399 104.476884,105.728961 104.476884,105.728961 C104.476884,105.728961 109.402945,103.390567 120.897089,103.390567 C145.801066,103.390567 166.599992,117.754987 174.536425,124.436112 C182.472857,131.117237 180.283497,138.800531 171.252384,135.794025 C162.221271,133.121575 153.190158,125.104225 143.338035,119.759324 C133.485913,114.74848 128.559851,113.746312 119.802408,113.078199 C114.055337,112.410087 105.024224,113.412255 99.5508223,118.089043 C88.8776891,126.774506 81.762267,155.837401 81.762267,155.837401 C81.762267,155.837401 86.6883285,151.828726 92.1617301,151.160613 C99.8244924,150.158444 113.507997,148.488163 129.654531,150.492501 C144.706386,152.496838 159.2109,157.173626 157.84255,164.522864 C156.474199,171.872102 144.980056,166.861258 114.876347,162.18447 C91.61439,158.509851 81.4885969,167.863426 77.6572158,175.54672 C73.8258346,183.230015 68.0787629,206.948009 67.5314227,223.984879 C69.9944535,220.31026 72.1838141,218.974035 74.6468449,217.303754 C80.3939166,213.629135 91.3407199,206.279897 105.845234,201.603109 C120.349749,196.926321 136.769954,194.921984 143.064365,198.262546 C149.358777,201.603109 147.990427,204.609615 143.611706,207.950178 C139.232984,211.624797 123.086449,211.290741 117.613048,211.624797 C105.845234,212.29291 89.4250293,217.63781 80.3939166,224.318935 C75.7415252,227.659498 70.8154637,232.336285 69.7207834,238.683354 C68.6261031,245.030423 71.0891338,253.047774 73.5521645,259.728899 C75.194185,264.071631 76.8362055,269.082474 77.6572158,277.099825 C79.8465764,268.414362 86.1409883,260.062955 100.919173,248.705042 C111.044966,241.021748 118.981398,239.685523 119.255068,245.030423 C119.528738,250.70938 110.497626,255.052111 101.192843,259.728899 C93.8037506,263.403518 83.9516277,275.095487 83.6779576,280.774444 C83.1306174,286.4534 86.1409883,294.136694 88.6040191,303.824326 C91.0670498,313.511958 86.9619986,320.861195 86.9619986,320.861195 C86.9619986,320.861195 97.9088018,317.520633 105.024224,315.516295 C109.676615,314.18007 119.802408,316.85252 123.90746,314.514126 C128.012511,312.175733 132.117562,305.828664 133.212242,291.7983 C134.033253,280.106331 135.675273,274.761431 137.317294,268.748418 C138.411974,265.073799 141.422345,256.05428 143.064365,262.067293 C144.980056,269.082474 143.338035,281.442556 142.243355,289.459907 C140.875005,302.822157 133.759583,318.522802 133.759583,318.522802 C133.759583,318.522802 135.948943,316.85252 140.327665,315.516295 C143.885376,314.514126 154.832179,312.509789 159.48457,309.169226 C164.136962,305.828664 168.789353,292.132357 167.694673,278.770106 C166.326322,258.392674 166.326322,237.681186 169.336693,237.681186 C172.620734,238.015242 176.725785,241.689861 177.273126,255.052111 C178.094136,272.423037 176.725785,281.1085 173.989085,293.134526 C172.894404,297.811313 170.157704,306.830832 170.157704,306.830832 C170.157704,306.830832 174.536425,305.160551 176.725785,303.824326 C184.114878,300.149707 193.41966,295.472919 197.798382,286.4534 C201.903433,278.101994 202.177103,269.082474 199.714072,256.05428 C198.345722,249.039099 195.882691,241.689861 193.693331,232.670342 C190.13562,219.308091 188.219929,212.626966 188.767269,205.945841 C189.314609,201.269053 196.430031,198.262546 201.903433,218.305922 C207.650505,239.351467 210.934546,255.386168 210.387206,266.744081 C210.113536,275.7636 208.197845,283.112838 208.197845,283.112838 C208.197845,283.112838 221.060339,271.754925 222.155019,270.4187 C224.34438,268.080306 226.807411,265.741912 228.996771,263.403518 C244.595966,246.700705 233.649163,224.318935 225.43906,211.958853 C223.249699,208.618291 221.060339,205.611784 218.597308,202.605278 C214.492257,196.926321 207.103165,184.232183 210.934546,181.225677 C214.765927,178.553227 226.807411,189.243027 233.649163,200.266884 C240.764585,211.958853 246.511656,228.661667 244.322296,245.36448 C246.511656,242.357973 250.343038,237.347129 252.532398,234.340623 C255.542769,229.997892 258.55314,226.323273 260.742501,220.644316 C262.931861,215.299416 264.026542,208.952347 263.479202,203.607447 C261.837181,190.579252 252.532398,180.223508 244.322296,173.876439 C235.564853,167.195314 218.323638,156.505513 221.881349,150.492501 C225.16539,144.479488 251.711388,157.173626 260.195161,168.197483 C268.678933,179.221339 270.047283,187.906802 272.510314,195.924153 C274.699675,188.574915 276.341695,181.225677 277.436376,173.876439 C280.720417,153.833063 278.531056,132.453462 270.047283,122.431774 Z" id="path-1"></path>
    </defs>
    <g id="Wildlif" stroke="none" stroke-width="1" fill="none" fill-rule="evenodd">
        <g id="Desktop" transform="translate(0.000000, -173.000000)">
            <g id="Group" transform="translate(-191.000000, 64.000000)">
                <path d="M497.601816,417.578126 C460.146916,454.294062 347.627316,476.519716 309.816146,483.109491 L294.016312,499.240765 C359.539152,476.545518 478.414829,449.417525 479.783115,449.107904 C480.376899,448.973734 480.981011,449.257554 481.259831,449.799391 C481.538652,450.336068 481.414732,450.996594 480.955194,451.399102 C437.185524,489.885039 322.889734,505.593164 283.508906,509.969146 L261.167115,532.783081 C328.326735,512.559645 461.391282,487.29454 462.909306,487.00556 C463.50309,486.892033 464.112365,487.201654 464.365369,487.753812 C464.618373,488.30597 464.463472,488.961335 463.988445,489.343202 C402.64275,538.536879 288.47088,543.207001 250.81461,543.351491 L234.266091,560.251658 C302.44289,543.929451 456.336368,526.410041 458.029945,526.219108 C458.634056,526.167504 459.202024,526.492607 459.418885,527.060246 C459.640909,527.622725 459.449865,528.26777 458.959347,528.618674 C411.069328,563.18274 328.347389,569.628025 273.362935,569.628025 C252.797334,569.628025 236.155875,568.724963 226.619178,568.059277 L205.960638,589.154814 C276.435125,579.071477 427.70046,575.05672 429.383711,575.010277 C429.894882,575.005117 430.52481,575.392143 430.6952,575.970103 C430.865591,576.548063 430.622913,577.172466 430.101416,577.482088 C394.44336,598.773718 342.830569,604.728769 296.29851,604.728769 C254.258561,604.728769 216.473207,599.888355 198.184641,597.101762 L178.646546,617.0517 C247.639153,610.993442 405.007562,617.072341 406.721792,617.139426 C407.325904,617.165228 407.837075,617.588377 407.966158,618.181818 C408.095242,618.775259 407.811258,619.379021 407.27427,619.65252 C378.545422,634.354375 340.811702,639.189629 303.625296,639.189629 C247.845687,639.189629 193.331097,628.321918 172.238836,623.589871 L152.871131,643.364357 C216.700394,644.169372 361.310179,664.496016 362.884999,664.717911 C363.483947,664.800477 363.948648,665.28039 364.020935,665.878992 C364.093221,666.482753 363.747277,667.050392 363.184473,667.272288 C344.488003,674.563871 322.445686,677.376265 299.623704,677.376265 C238.112783,677.376265 170.813753,656.998018 147.196616,649.159437 L132.868335,663.789047 C186.035292,669.893749 315.888239,704.106911 317.266852,704.473296 C317.855473,704.633267 318.258214,705.159624 318.258214,705.763386 C318.25305,706.367147 317.845146,706.893504 317.261688,707.048314 C307.19833,709.659455 296.272693,710.789573 284.933989,710.789573 C223.015164,710.789573 148.306735,677.185332 128.84609,667.896691 L123.434905,673.418272 C122.257662,674.83737 121.121727,676.28227 119.949647,677.706528 C156.924356,686.912604 261.580183,734.135025 262.648995,734.620098 C263.201473,734.867795 263.516437,735.456076 263.41317,736.054677 C263.315067,736.648118 262.824549,737.102229 262.220438,737.153833 C259.809156,737.365408 257.351404,737.468615 254.862672,737.468615 C198.416991,737.468615 124.803191,685.054876 117.997903,680.116415 C106.592076,694.044216 95.3927817,708.116508 84.616882,722.48294 L84.5807386,722.534544 C82.3759906,725.470786 78.2091717,726.069388 75.2712288,723.865915 C72.3332858,721.662443 71.7343379,717.498036 73.9390859,714.561793 C73.9649026,714.525671 74.0113727,714.463746 74.0423528,714.427624 C85.4585072,700.004428 97.256749,685.937297 109.246035,672.050778 C93.0073166,655.305421 37.2173809,594.32033 33.3035659,543.176039 C33.2570958,542.572277 33.6236933,542.014959 34.1968245,541.818865 C34.759629,541.622772 35.3998837,541.834346 35.7355011,542.340061 C36.3499391,543.263765 93.9109019,629.472678 112.648678,668.066983 C115.008327,665.352635 117.383465,662.643448 119.763767,659.944582 C104.356347,637.801493 44.7920071,547.366248 50.7659965,481.231122 C50.8227933,480.62736 51.2771676,480.142286 51.8709522,480.039079 C52.4699001,479.930712 53.0585214,480.250654 53.3063619,480.802812 C53.8898198,482.098062 108.709047,604.130168 123.543335,655.707929 C129.248831,649.278125 134.969816,642.863802 140.752762,636.516564 C129.852942,616.530504 68.4039808,499.044672 84.8027624,421.370988 C84.9266827,420.777547 85.4378538,420.344077 86.0419651,420.318276 C86.640913,420.261512 87.1933909,420.66918 87.3741079,421.24714 C87.869789,422.831369 135.594581,574.845146 144.108936,632.847551 C149.081236,627.413696 154.04321,621.97468 159.061981,616.587268 L181.326322,593.117967 L188.663434,585.614809 C182.302194,567.470996 134.830406,426.376534 167.008368,344.533283 C167.230392,343.970804 167.813849,343.614739 168.402471,343.702465 C169.006582,343.77471 169.48161,344.239142 169.564223,344.837744 C169.817227,346.628387 193.806125,519.711899 192.138365,582.069645 L203.94177,569.999571 C206.435665,567.429714 209.007011,564.937262 211.526723,562.393206 C208.531983,546.277413 182.493237,397.081191 227.522764,320.351853 C227.832564,319.830657 228.452165,319.58296 229.03046,319.742931 C229.613918,319.908062 230.011495,320.444739 230.001169,321.048501 C229.970189,322.849465 226.779242,496.583182 215.512825,558.39909 C219.271739,554.642351 222.984184,550.839168 226.768915,547.10823 C230.54332,543.392774 234.291908,539.646355 238.050823,535.915418 C238.050823,535.910257 238.040496,535.905097 238.040496,535.899937 C237.839126,534.403433 218.357827,385.356862 270.295908,306.326005 C270.631525,305.815129 271.27178,305.593234 271.844911,305.799648 C272.423206,306.000902 272.789803,306.568541 272.733007,307.177463 C272.572943,308.885541 257.108727,475.043854 241.66,532.380573 C244.355266,529.71783 247.045368,527.044765 249.787104,524.423304 C255.100186,519.231986 260.521697,514.164516 265.870922,509.01448 C265.803798,492.35685 266.413073,349.048594 305.56155,294.988702 C305.922984,294.493307 306.568402,294.307535 307.131207,294.52943 C307.699175,294.756486 308.039955,295.334446 307.962505,295.938207 C307.766298,297.475993 288.61029,444.520347 270.543749,504.540451 C277.039236,498.30158 283.508906,492.036908 290.050864,485.849641 C291.68248,466.389937 304.306857,330.548717 342.484625,285.937437 C342.87704,285.483325 343.532784,285.343996 344.074935,285.607174 C344.617087,285.870352 344.916561,286.468953 344.797804,287.062394 C344.524146,288.44021 318.371807,419.523581 295.596295,480.539634 C302.117599,474.39881 308.716353,468.345712 315.273801,462.24101 C315.273801,462.23069 315.268637,462.225529 315.268637,462.215209 C315.387394,461.085091 328.047915,349.033113 372.535289,292.542693 C372.932867,292.042138 373.624755,291.892488 374.192723,292.186628 C374.760691,292.480769 375.034348,293.130973 374.853631,293.745056 C374.461217,295.050626 337.352261,418.723726 320.246101,457.617331 C328.094385,450.336068 335.896198,442.998042 343.785788,435.758062 C344.51382,435.092376 345.257341,434.437011 345.985373,433.771325 C345.990536,433.719721 345.954393,433.678438 345.964719,433.631995 C346.176417,432.605084 367.387435,330.373265 413.052053,295.736953 C413.532244,295.375728 414.198315,295.380889 414.673343,295.752434 C415.14837,296.12398 415.313597,296.763864 415.076084,297.321183 C414.647526,298.322292 374.827814,390.83716 352.862948,427.558256 C360.081303,420.983962 367.340965,414.456111 374.595464,407.9231 C374.487034,407.886977 374.368277,407.892138 374.26501,407.825053 C373.722859,407.479309 373.505998,406.803302 373.743512,406.209861 C375.287352,402.344755 411.823177,311.403795 433.467916,305.221688 C433.958434,305.072038 434.490258,305.237169 434.831039,305.619036 C435.166656,306.006062 435.254433,306.55306 435.053063,307.022653 C434.769079,307.688339 407.584071,370.489875 379.985995,403.051723 C386.920367,396.828334 393.875392,390.630746 400.845907,384.453799 C400.825253,384.139017 400.902703,383.819075 401.104074,383.555897 C426.807202,349.9981 490.099477,309.241606 490.734568,308.833938 C491.168289,308.560439 491.720767,308.560439 492.154488,308.823617 C492.588209,309.097116 492.825723,309.59251 492.768926,310.103385 C490.595158,329.108978 429.755472,368.704392 409.349935,381.486594 L382.34048,409.063538 C422.692016,384.03581 478.301235,353.935452 479.060247,353.527784 C479.592071,353.238804 480.247816,353.347171 480.660883,353.785802 C481.068788,354.224432 481.135911,354.890118 480.815784,355.400993 C456.651332,393.995298 388.613944,421.040726 361.160442,430.680271 L346.000863,446.16134 C394.50532,421.923146 479.039593,385.583917 480.098079,385.129806 C480.681537,384.871788 481.363098,385.078202 481.724532,385.609719 C482.080803,386.136075 482.01368,386.843044 481.559305,387.291995 C440.810192,427.713066 362.595852,452.038986 332.111467,460.34716 L320.664332,472.035367 C385.015093,446.006529 495.056287,415.694596 496.316143,415.348852 C496.904765,415.194042 497.519203,415.441739 497.82384,415.968095 C498.123314,416.489291 498.035537,417.154977 497.601816,417.578126 Z" id="Shape" fill="#D2D6ED" fill-rule="nonzero" opacity="0.3"></path>
                <g id="Group-2" transform="translate(249.229552, 248.949631) rotate(43.000000) translate(-249.229552, -248.949631) translate(74.966905, 71.056512)">
                    <path d="M270.913518,122.487506 C262.429746,112.465818 251.209272,111.463649 245.188531,111.797705 L232.599707,112.131761 C254.493313,94.7608357 275.56591,69.0385034 279.670961,37.9712708 C280.491971,32.2923143 269.545168,34.6307081 268.724158,39.6415521 C264.892777,68.0363346 245.462201,92.7564981 224.936945,108.791199 C224.936945,108.457143 224.936945,108.123086 224.936945,108.123086 C224.936945,108.123086 224.936945,108.123086 224.936945,108.123086 C224.936945,100.773848 235.062738,85.073204 227.399975,62.3573781 C221.379234,43.9842835 203.864348,36.969102 173.486969,44.6523961 C163.634846,46.9907899 146.940971,57.3465341 146.940971,57.3465341 C146.940971,57.3465341 159.803465,58.6827592 172.939629,68.0363346 C177.31835,71.0428409 183.886432,76.0536849 188.812494,83.0688665 C194.833236,92.0883856 197.569936,104.448467 194.285895,106.118749 C188.265154,109.125255 174.85532,84.4050915 164.455856,75.3855724 C157.614104,69.3725596 147.761981,65.0298282 138.730869,67.368222 C130.794436,69.7066159 124.500024,77.7239662 118.752953,85.7413166 C115.195242,90.7521605 111.637531,95.7630045 108.07982,101.107905 C107.258809,102.44413 105.343119,105.784692 105.343119,105.784692 C105.343119,105.784692 110.26918,103.446299 121.763324,103.446299 C146.667301,103.446299 167.466227,117.810718 175.40266,124.491843 C183.339092,131.172969 181.149731,138.856263 172.118619,135.849756 C163.087506,133.177306 154.056393,125.159956 144.20427,119.815056 C134.352147,114.804212 129.426086,113.802043 120.668643,113.13393 C114.921572,112.465818 105.890459,113.467987 100.417057,118.144774 C89.7439241,126.830237 82.6285019,155.893132 82.6285019,155.893132 C82.6285019,155.893132 87.5545634,151.884457 93.027965,151.216344 C100.690727,150.214176 114.374231,148.543894 130.520766,150.548232 C145.572621,152.552569 160.077135,157.229357 158.708785,164.578595 C157.340434,171.927833 145.846291,166.916989 115.742582,162.240201 C92.4806249,158.565582 82.3548318,167.919158 78.5234507,175.602452 C74.6920695,183.285746 68.9449978,207.003741 68.3976577,224.04061 C70.8606884,220.365991 73.050049,219.029766 75.5130798,217.359485 C81.2601515,213.684866 92.2069548,206.335628 106.711469,201.65884 C121.215983,196.982053 137.636188,194.977715 143.9306,198.318278 C150.225012,201.65884 148.856662,204.665347 144.47794,208.005909 C140.099219,211.680528 123.952684,211.346472 118.479283,211.680528 C106.711469,212.348641 90.2912642,217.693541 81.2601515,224.374666 C76.6077601,227.715229 71.6816986,232.392017 70.5870183,238.739086 C69.492338,245.086155 71.9553687,253.103505 74.4183995,259.78463 C76.06042,264.127362 77.7024404,269.138206 78.5234507,277.155556 C80.7128113,268.470093 87.0072232,260.118687 101.785408,248.760774 C111.911201,241.077479 119.847633,239.741254 120.121303,245.086155 C120.394973,250.765111 111.363861,255.107843 102.059078,259.78463 C94.6699855,263.459249 84.8178626,275.151218 84.5441925,280.830175 C83.9968523,286.509131 87.0072232,294.192426 89.470254,303.880057 C91.9332847,313.567689 87.8282335,320.916927 87.8282335,320.916927 C87.8282335,320.916927 98.7750368,317.576364 105.890459,315.572026 C110.54285,314.235801 120.668643,316.908251 124.773695,314.569858 C128.878746,312.231464 132.983797,305.884395 134.078477,291.854032 C134.899488,280.162062 136.541508,274.817162 138.183529,268.804149 C139.278209,265.129531 142.28858,256.110011 143.9306,262.123024 C145.846291,269.138206 144.20427,281.498287 143.10959,289.515638 C141.74124,302.877888 134.625818,318.578533 134.625818,318.578533 C134.625818,318.578533 136.815178,316.908251 141.193899,315.572026 C144.751611,314.569858 155.698414,312.56552 160.350805,309.224957 C165.003197,305.884395 169.655588,292.188088 168.560908,278.825837 C167.192557,258.448405 167.192557,237.736917 170.202928,237.736917 C173.486969,238.070973 177.59202,241.745592 178.139361,255.107843 C178.960371,272.478768 177.59202,281.164231 174.85532,293.190257 C173.760639,297.867044 171.023938,306.886564 171.023938,306.886564 C171.023938,306.886564 175.40266,305.216282 177.59202,303.880057 C184.981113,300.205438 194.285895,295.528651 198.664617,286.509131 C202.769668,278.157725 203.043338,269.138206 200.580307,256.110011 C199.211957,249.09483 196.748926,241.745592 194.559566,232.726073 C191.001854,219.363822 189.086164,212.682697 189.633504,206.001572 C190.180844,201.324784 197.296266,198.318278 202.769668,218.361654 C208.51674,239.407198 211.800781,255.441899 211.253441,266.799812 C210.97977,275.819331 209.06408,283.168569 209.06408,283.168569 C209.06408,283.168569 221.926574,271.810656 223.021254,270.474431 C225.210615,268.136037 227.673645,265.797643 229.863006,263.459249 C245.462201,246.756436 234.515397,224.374666 226.305295,212.014584 C224.115934,208.674022 221.926574,205.667515 219.463543,202.661009 C215.358492,196.982053 207.9694,184.287915 211.800781,181.281408 C215.632162,178.608958 227.673645,189.298759 234.515397,200.322615 C241.63082,212.014584 247.377891,228.717398 245.188531,245.420211 C247.377891,242.413705 251.209272,237.402861 253.398633,234.396354 C256.409004,230.053623 259.419375,226.379004 261.608736,220.700047 C263.798096,215.355147 264.892777,209.008078 264.345436,203.663178 C262.703416,190.634984 253.398633,180.279239 245.188531,173.93217 C236.431088,167.251045 219.189873,156.561245 222.747584,150.548232 C226.031625,144.535219 252.577623,157.229357 261.061395,168.253214 C269.545168,179.277071 270.913518,187.962533 273.376549,195.979884 C275.56591,188.630646 277.20793,181.281408 278.302611,173.93217 C281.586652,153.888794 279.397291,132.509194 270.913518,122.487506 Z" id="Shape" fill="#EAECF8" fill-rule="nonzero" transform="translate(174.078318, 177.788927) rotate(-220.000000) translate(-174.078318, -177.788927) "></path>
                    <g id="Rectangle">
                        <mask id="mask-2" fill="white">
                            <use xlink:href="#path-1"></use>
                        </mask>
                        <use id="Mask" fill-opacity="0.3" fill="#C5C7D8" fill-rule="nonzero" transform="translate(173.212083, 177.733196) rotate(-220.000000) translate(-173.212083, -177.733196) " xlink:href="#path-1"></use>
                        <rect fill="#000000" opacity="0.04" mask="url(#mask-2)" x="161.748547" y="-121.015781" width="181.909333" height="430.444207"></rect>
                    </g>
                </g>
            </g>
        </g>
    </g>
</svg>