<?xml version="1.0" encoding="UTF-8"?>
<svg width="274px" height="633px" viewBox="0 0 274 633" version="1.1" xmlns="http://www.w3.org/2000/svg" xmlns:xlink="http://www.w3.org/1999/xlink">
    <!-- Generator: Sketch 50 (54983) - http://www.bohemiancoding.com/sketch -->
    <title>Group 3</title>
    <desc>Created with Sketch.</desc>
    <defs>
        <path d="M291.714136,130.484705 C281.930626,121.042109 268.991145,120.09785 262.048009,120.412603 L247.530542,120.727356 C272.77831,104.36019 297.079287,80.1241936 301.813243,50.8521462 C302.760034,45.5013419 290.136151,47.7046143 289.189359,52.4259122 C284.771,79.179934 262.363606,102.471671 238.693824,117.579824 C238.693824,117.265071 238.693824,116.950318 238.693824,116.950318 C238.693824,116.950318 238.693824,116.950318 238.693824,116.950318 C238.693824,110.025747 250.370916,95.2323471 241.534198,73.8291296 C234.591061,56.5177038 214.392847,49.9078866 179.361569,57.1472102 C168.000074,59.3504826 148.748651,69.1078317 148.748651,69.1078317 C148.748651,69.1078317 163.581715,70.3668445 178.730375,79.179934 C183.779929,82.0127128 191.354259,86.7340107 197.035007,93.3438279 C203.978143,101.842164 207.134114,113.488033 203.346949,115.061798 C196.403813,117.894577 180.939555,94.6028407 168.946865,86.1045043 C161.056938,80.4389468 149.695442,76.3471552 139.280738,78.5504276 C130.128422,80.7537 122.869689,88.3077767 116.24215,95.8618535 C112.139388,100.583151 108.036626,105.304449 103.933863,110.340501 C102.987072,111.599513 100.777892,114.747045 100.777892,114.747045 C100.777892,114.747045 106.45864,112.543773 119.713718,112.543773 C148.433054,112.543773 172.418433,126.07816 181.570749,132.373224 C190.723065,138.668288 188.198288,145.907612 177.783584,143.074833 C167.36888,140.556807 156.954176,133.002731 145.59268,127.96668 C134.231185,123.245382 128.550437,122.301122 118.45133,121.671616 C111.823791,121.042109 101.409087,121.986369 95.0971446,126.392914 C82.7888578,134.576497 74.5833332,161.960025 74.5833332,161.960025 C74.5833332,161.960025 80.264081,158.182987 86.5760229,157.55348 C95.4127417,156.609221 111.192597,155.035455 129.812825,156.923974 C147.170666,158.812493 163.897312,163.219038 162.319326,170.143608 C160.741341,177.068178 147.486263,172.34688 112.770582,167.940336 C85.9448287,164.47805 74.2677362,173.29114 69.8493768,180.530464 C65.4310174,187.769787 58.8034784,210.117264 58.1722842,226.169677 C61.0126581,222.707392 63.5374348,221.448379 66.3778087,219.874613 C73.0053478,216.412328 85.6292316,209.487758 102.355878,205.081213 C119.082524,200.674668 138.01835,198.786149 145.277083,201.933681 C152.535816,205.081213 150.957831,207.913992 145.908277,211.061524 C140.858724,214.523809 122.238495,214.209056 115.926553,214.523809 C102.355878,215.153315 83.420052,220.189366 73.0053478,226.48443 C67.6401971,229.631962 61.9594494,234.038507 60.697061,240.018818 C59.4346726,245.999129 62.2750465,253.553205 65.1154203,259.848269 C67.0090029,263.940061 68.9025855,268.661359 69.8493768,276.215436 C72.3741536,268.031852 79.6328868,260.163022 96.67513,249.461414 C108.352223,242.22209 117.504538,240.963077 117.820136,245.999129 C118.135733,251.349933 107.721028,255.441725 96.9907271,259.848269 C88.4696055,263.310554 77.10811,274.326916 76.7925129,279.677721 C76.1613187,285.028525 79.6328868,292.267849 82.4732607,301.395691 C85.3136346,310.523534 80.5796781,317.448104 80.5796781,317.448104 C80.5796781,317.448104 93.203562,314.300572 101.409087,312.412053 C106.774237,311.15304 118.45133,313.671066 123.185286,311.467794 C127.919243,309.264521 132.653199,303.284211 133.915588,290.064576 C134.862379,279.048214 136.755961,274.012163 138.649544,268.346606 C139.911932,264.88432 143.3835,256.385984 145.277083,262.051542 C147.486263,268.661359 145.59268,280.307227 144.330292,287.861304 C142.752306,300.451432 134.546782,315.244832 134.546782,315.244832 C134.546782,315.244832 137.071558,313.671066 142.121112,312.412053 C146.223874,311.467794 158.847758,309.579274 164.212909,306.431742 C169.578059,303.284211 174.94321,290.379329 173.680822,277.789202 C172.102836,258.589256 172.102836,239.074558 175.574404,239.074558 C179.361569,239.389311 184.095526,242.851597 184.72672,255.441725 C185.673511,271.808891 184.095526,279.992474 180.939555,291.323589 C179.677167,295.730134 176.521196,304.22847 176.521196,304.22847 C176.521196,304.22847 181.570749,302.654704 184.095526,301.395691 C192.616648,297.933406 203.346949,293.526861 208.396502,285.028525 C213.130459,277.159695 213.446056,268.661359 210.605682,256.385984 C209.027697,249.776167 206.187323,242.851597 203.662546,234.35326 C199.559784,221.763132 197.350604,215.468068 197.981798,209.173005 C198.612992,204.76646 206.818517,201.933681 213.130459,220.818873 C219.757998,240.648324 223.545163,255.756478 222.913969,266.458086 C222.598372,274.956423 220.389192,281.880993 220.389192,281.880993 C220.389192,281.880993 235.222256,271.179384 236.484644,269.920372 C239.009421,267.717099 241.849795,265.513827 244.374572,263.310554 C262.363606,247.572895 249.739722,226.48443 240.271809,214.838562 C237.747032,211.69103 235.222256,208.858251 232.381882,206.025473 C227.647925,200.674668 219.126804,188.714047 223.545163,185.881268 C227.963522,183.363242 241.849795,193.435345 249.739722,203.8222 C257.945247,214.838562 264.572786,230.576222 262.048009,246.313882 C264.572786,243.481103 268.991145,238.759805 271.515922,235.927026 C274.98749,231.835235 278.459058,228.37295 280.983835,223.022145 C283.508612,217.986094 284.771,212.005783 284.139806,206.969732 C282.246223,194.694357 271.515922,184.937008 262.048009,178.956698 C251.948902,172.661634 232.066285,162.589531 236.169047,156.923974 C239.956212,151.258416 270.569131,163.219038 280.352641,173.605893 C290.136151,183.992749 291.714136,192.176332 294.55451,199.730409 C297.079287,192.805838 298.972869,185.881268 300.235258,178.956698 C304.022423,160.071506 301.497646,139.927301 291.714136,130.484705 Z" id="path-1"></path>
    </defs>
    <g id="Wildlif" stroke="none" stroke-width="1" fill="none" fill-rule="evenodd">
        <g id="Desktop" transform="translate(-750.000000, -168.000000)">
            <g id="Group-3" transform="translate(670.000000, 33.000000)">
                <g id="Group-2" opacity="0.36328125" transform="translate(255.444015, 255.277678) rotate(-52.000000) translate(-255.444015, -255.277678) translate(74.003154, 72.871707)">
                    <path d="M292.713081,130.537216 C282.929571,121.09462 269.99009,120.15036 263.046953,120.465114 L248.529487,120.779867 C273.777255,104.412701 298.078231,80.1767044 302.812188,50.9046571 C303.758979,45.5538527 291.135095,47.7571251 290.188304,52.478423 C285.769944,79.2324448 263.362551,102.524181 239.692768,117.632335 C239.692768,117.317582 239.692768,117.002829 239.692768,117.002829 C239.692768,117.002829 239.692768,117.002829 239.692768,117.002829 C239.692768,110.078258 251.369861,95.2848579 242.533142,73.8816405 C235.590006,56.5702146 215.391792,49.9603975 180.360514,57.199721 C168.999019,59.4029934 149.747596,69.1603425 149.747596,69.1603425 C149.747596,69.1603425 164.580659,70.4193553 179.72932,79.2324448 C184.778873,82.0652236 192.353204,86.7865216 198.033951,93.3963387 C204.977088,101.894675 208.133059,113.540543 204.345893,115.114309 C197.402757,117.947088 181.938499,94.6553515 169.94581,86.1570152 C162.055882,80.4914576 150.694387,76.399666 140.279683,78.6029384 C131.127367,80.8062108 123.868634,88.3602875 117.241095,95.9143643 C113.138332,100.635662 109.03557,105.35696 104.932808,110.393011 C103.986016,111.652024 101.776837,114.799556 101.776837,114.799556 C101.776837,114.799556 107.457585,112.596284 120.712663,112.596284 C149.431998,112.596284 173.417378,126.130671 182.569694,132.425735 C191.722009,138.720799 189.197233,145.960123 178.782529,143.127344 C168.367824,140.609318 157.95312,133.055242 146.591625,128.01919 C135.230129,123.297892 129.549381,122.353633 119.450274,121.724126 C112.822735,121.09462 102.408031,122.03888 96.0960891,126.445424 C83.7878023,134.629008 75.5822778,162.012536 75.5822778,162.012536 C75.5822778,162.012536 81.2630255,158.235497 87.5749674,157.605991 C96.4116862,156.661731 112.191541,155.087965 130.81177,156.976485 C148.16961,158.865004 164.896256,163.271549 163.318271,170.196119 C161.740285,177.120689 148.485207,172.399391 113.769527,167.992846 C86.9437733,164.530561 75.2666807,173.343651 70.8483213,180.582974 C66.4299619,187.822298 59.8024229,210.169775 59.1712287,226.222188 C62.0116026,222.759903 64.5363794,221.50089 67.3767532,219.927124 C74.0042923,216.464839 86.6281762,209.540269 103.354822,205.133724 C120.081468,200.727179 139.017294,198.83866 146.276028,201.986192 C153.534761,205.133724 151.956775,207.966503 146.907222,211.114035 C141.857668,214.57632 123.237439,214.261566 116.925497,214.57632 C103.354822,215.205826 84.4189965,220.241877 74.0042923,226.536941 C68.6391416,229.684473 62.9583939,234.091018 61.6960055,240.071329 C60.4336171,246.051639 63.273991,253.605716 66.1143648,259.90078 C68.0079474,263.992572 69.90153,268.71387 70.8483213,276.267946 C73.3730981,268.084363 80.6318313,260.215533 97.6740746,249.513925 C109.351167,242.274601 118.503483,241.015588 118.81908,246.051639 C119.134677,251.402444 108.719973,255.494235 97.9896717,259.90078 C89.46855,263.363065 78.1070545,274.379427 77.7914574,279.730232 C77.1602632,285.081036 80.6318313,292.320359 83.4722052,301.448202 C86.3125791,310.576045 81.5786226,317.500615 81.5786226,317.500615 C81.5786226,317.500615 94.2025065,314.353083 102.408031,312.464564 C107.773182,311.205551 119.450274,313.723577 124.184231,311.520304 C128.918187,309.317032 133.652144,303.336721 134.914532,290.117087 C135.861323,279.100725 137.754906,274.064674 139.648488,268.399116 C140.910877,264.936831 144.382445,256.438495 146.276028,262.104052 C148.485207,268.71387 146.591625,280.359738 145.329236,287.913815 C143.751251,300.503943 135.545726,315.297343 135.545726,315.297343 C135.545726,315.297343 138.070503,313.723577 143.120057,312.464564 C147.222819,311.520304 159.846703,309.631785 165.211853,306.484253 C170.577004,303.336721 175.942155,290.43184 174.679766,277.841712 C173.101781,258.641767 173.101781,239.127069 176.573349,239.127069 C180.360514,239.441822 185.09447,242.904107 185.725665,255.494235 C186.672456,271.861402 185.09447,280.044985 181.938499,291.3761 C180.676111,295.782645 177.52014,304.280981 177.52014,304.280981 C177.52014,304.280981 182.569694,302.707215 185.09447,301.448202 C193.615592,297.985917 204.345893,293.579372 209.395447,285.081036 C214.129403,277.212206 214.445,268.71387 211.604627,256.438495 C210.026641,249.828678 207.186267,242.904107 204.66149,234.405771 C200.558728,221.815643 198.349549,215.520579 198.980743,209.225515 C199.611937,204.818971 207.817461,201.986192 214.129403,220.871384 C220.756942,240.700835 224.544108,255.808989 223.912913,266.510597 C223.597316,275.008934 221.388137,281.933504 221.388137,281.933504 C221.388137,281.933504 236.2212,271.231895 237.483589,269.972882 C240.008365,267.76961 242.848739,265.566338 245.373516,263.363065 C263.362551,247.625405 250.738667,226.536941 241.270754,214.891073 C238.745977,211.743541 236.2212,208.910762 233.380826,206.077983 C228.64687,200.727179 220.125748,188.766558 224.544108,185.933779 C228.962467,183.415753 242.848739,193.487855 250.738667,203.874711 C258.944191,214.891073 265.57173,230.628733 263.046953,246.366393 C265.57173,243.533614 269.99009,238.812316 272.514866,235.979537 C275.986434,231.887746 279.458002,228.42546 281.982779,223.074656 C284.507556,218.038605 285.769944,212.058294 285.13875,207.022243 C283.245168,194.746868 272.514866,184.989519 263.046953,179.009208 C252.947846,172.714144 233.065229,162.642042 237.167991,156.976485 C240.955157,151.310927 271.568075,163.271549 281.351585,173.658404 C291.135095,184.04526 292.713081,192.228843 295.553454,199.782919 C298.078231,192.858349 299.971814,185.933779 301.234202,179.009208 C305.021367,160.124017 302.496591,139.979812 292.713081,130.537216 Z" id="Shape" fill="#EAECF8" fill-rule="nonzero" transform="translate(181.042459, 182.643106) rotate(-220.000000) translate(-181.042459, -182.643106) "></path>
                    <g id="Rectangle">
                        <mask id="mask-2" fill="white">
                            <use xlink:href="#path-1"></use>
                        </mask>
                        <use id="Mask" fill-opacity="0.3" fill="#C5C7D8" fill-rule="nonzero" transform="translate(180.043514, 182.590596) rotate(-220.000000) translate(-180.043514, -182.590596) " xlink:href="#path-1"></use>
                        <rect fill="#000000" opacity="0.04" mask="url(#mask-2)" x="166.823733" y="-98.8955064" width="209.778347" height="405.571471"></rect>
                    </g>
                </g>
                <path d="M552.594705,441.735493 C514.470856,479.183016 399.941641,501.851531 361.455158,508.572612 L345.373138,525.025311 C412.066224,501.877847 533.065035,474.209312 534.457759,473.893521 C535.062149,473.756678 535.677049,474.046153 535.96085,474.598787 C536.24465,475.146158 536.118517,475.819845 535.650772,476.230373 C491.09937,515.483166 374.762242,531.504285 334.678068,535.967462 L311.93725,559.235979 C380.296349,538.609578 515.737446,512.84105 517.282581,512.546312 C517.886971,512.430522 518.507127,512.746313 518.76465,513.309473 C519.022172,513.872633 518.864506,514.541057 518.380994,514.930533 C455.939658,565.104424 339.728664,569.867602 301.399848,570.014971 L284.55577,587.251884 C353.950215,570.604447 510.592251,552.735952 512.316075,552.541214 C512.930976,552.488583 513.509088,552.820163 513.729821,553.399113 C513.95581,553.972799 513.761355,554.630697 513.262076,554.988593 C464.516736,590.24137 380.317372,596.815082 324.350888,596.815082 C303.417984,596.815082 286.479306,595.894025 276.772283,595.215075 L255.744778,616.730953 C327.477948,606.4467 481.444902,602.351947 483.158215,602.304578 C483.678516,602.299315 484.319694,602.694053 484.493128,603.283529 C484.666562,603.873006 484.41955,604.50985 483.888738,604.825641 C447.593825,626.54152 395.059224,632.61523 347.696096,632.61523 C304.905308,632.61523 266.445103,627.678367 247.829901,624.83625 L227.942853,645.183703 C298.167677,639.00473 458.346705,645.204755 460.091552,645.273177 C460.706453,645.299493 461.226754,645.731073 461.358143,646.336339 C461.489532,646.941605 461.200476,647.557397 460.653897,647.836345 C431.411949,662.831144 393.004299,667.762743 355.153739,667.762743 C298.377899,667.762743 242.889672,656.678487 221.4207,651.852151 L201.707086,672.020656 C266.676347,672.841712 413.868881,693.573376 415.471828,693.799693 C416.081473,693.883904 416.554474,694.37338 416.628052,694.983909 C416.70163,695.599701 416.349507,696.17865 415.776651,696.404967 C396.746259,703.84184 374.310264,706.710273 351.080678,706.710273 C288.471164,706.710273 219.970165,685.925976 195.931223,677.931207 L181.347037,692.852321 C235.463563,699.078662 367.6357,733.973544 369.038935,734.347229 C369.638069,734.510388 370.048003,735.047232 370.048003,735.663024 C370.042747,736.278816 369.627558,736.815661 369.033679,736.973556 C358.790588,739.636725 347.669818,740.789361 336.128604,740.789361 C273.1039,740.789361 197.061169,706.515535 177.252954,697.041812 L171.745125,702.673414 C170.546857,704.120788 169.390633,705.594479 168.197621,707.047116 C205.832702,716.436629 312.357695,764.599986 313.445597,765.094725 C314.007942,765.347357 314.328531,765.94736 314.22342,766.557889 C314.123564,767.163154 313.624286,767.626314 313.009385,767.678946 C310.555037,767.894736 308.05339,768 305.520209,768 C248.066401,768 173.137849,714.541884 166.211018,709.505021 C154.601481,723.710343 143.202166,738.063034 132.233808,752.715726 L132.197019,752.768358 C129.952894,755.763107 125.711655,756.373636 122.72124,754.126258 C119.730825,751.878881 119.12118,747.631495 121.365305,744.636746 C121.391582,744.599903 121.438883,744.536745 121.470416,744.499903 C133.090464,729.789316 145.099424,715.441888 157.30284,701.278671 C140.774096,684.199653 83.9877454,621.999396 80.0040292,569.836023 C79.9567291,569.220231 80.329874,568.651807 80.9132415,568.451806 C81.4860977,568.251806 82.1377875,568.467596 82.479399,568.983388 C83.1048109,569.925497 141.69382,657.852176 160.766255,697.215497 C163.168047,694.447064 165.585606,691.683895 168.00842,688.931252 C152.325822,666.346948 91.6976553,574.109725 97.778341,506.656814 C97.8361521,506.041022 98.2986416,505.546283 98.9030313,505.44102 C99.5126765,505.330493 100.111811,505.65681 100.364078,506.21997 C100.957956,507.541028 156.756261,632.004701 171.855492,684.610182 C177.662888,678.05226 183.486051,671.510127 189.372281,665.036416 C178.277789,644.652122 115.731342,524.82531 132.423008,445.60393 C132.549141,444.998664 133.069442,444.556557 133.684343,444.530241 C134.293988,444.472346 134.856333,444.888138 135.040278,445.477614 C135.544812,447.09341 184.121974,602.136156 192.788397,661.294296 C197.849503,655.752167 202.900099,650.204776 208.008505,644.710017 L230.67049,620.773075 L238.138644,613.120412 C231.663791,594.615073 183.344151,450.709214 216.096816,367.235185 C216.322805,366.661498 216.916683,366.298339 217.515817,366.387813 C218.130718,366.461498 218.61423,366.935184 218.698319,367.545713 C218.955841,369.372036 243.373184,545.904345 241.675637,609.504608 L253.689853,597.194031 C256.22829,594.572967 258.84556,592.030851 261.410274,589.436104 C258.362048,572.999194 231.858247,420.830143 277.692006,342.571925 C278.00734,342.040344 278.638007,341.787711 279.22663,341.95087 C279.820509,342.119292 280.225187,342.666662 280.214676,343.282454 C280.183143,345.119304 276.935205,522.314774 265.467568,585.362403 C269.293617,581.530808 273.072367,577.651845 276.924694,573.846566 C280.76651,570.057076 284.582048,566.236008 288.408098,562.430729 C288.408098,562.425466 288.397587,562.420203 288.397587,562.414939 C288.19262,560.888617 268.363383,408.872199 321.229084,328.266603 C321.570696,327.745548 322.222386,327.519231 322.805753,327.729758 C323.394376,327.935022 323.767521,328.513972 323.70971,329.135027 C323.546787,330.87714 307.806378,500.346262 292.081736,558.825451 C294.825139,556.10965 297.563287,553.383323 300.353991,550.709628 C305.761964,545.414869 311.280305,540.246427 316.725067,534.993773 C316.656745,518.004229 317.276901,371.840467 357.124575,316.703397 C357.492464,316.198132 358.14941,316.008657 358.722266,316.234974 C359.300378,316.466554 359.647245,317.05603 359.568412,317.671822 C359.3687,319.24025 339.870564,469.214554 321.481351,530.430597 C328.092849,524.067412 334.678068,517.677912 341.336866,511.36736 C342.997624,491.519909 355.847473,352.971968 394.707101,307.47178 C395.106524,307.00862 395.77398,306.866514 396.325814,307.134936 C396.877648,307.403359 397.182471,308.013887 397.061593,308.619153 C396.783048,310.024422 370.163625,443.719712 346.98134,505.951548 C353.619115,499.688364 360.335724,493.514655 367.010288,487.288313 C367.010288,487.277787 367.005032,487.272523 367.005032,487.261997 C367.12591,486.109361 380.012549,371.824678 425.294474,314.20865 C425.699152,313.698122 426.403398,313.545489 426.981509,313.845491 C427.559621,314.145492 427.838166,314.808652 427.654221,315.434971 C427.254799,316.766555 389.483072,442.903919 372.071394,482.572504 C380.059849,475.146158 388.001004,467.661916 396.031503,460.277675 C396.772537,459.598725 397.529338,458.930301 398.270372,458.251351 C398.275628,458.198719 398.238839,458.156614 398.24935,458.109245 C398.464828,457.061872 420.054678,352.79302 466.534872,317.466558 C467.023639,317.098136 467.701606,317.103399 468.185118,317.482348 C468.66863,317.861297 468.836808,318.513931 468.595052,319.082354 C468.15884,320.103411 427.627944,414.461696 405.270782,451.914482 C412.618058,445.209192 420.007378,438.551269 427.391443,431.888084 C427.281077,431.851242 427.160199,431.856505 427.055087,431.788083 C426.503253,431.43545 426.28252,430.745974 426.524276,430.140708 C428.095689,426.198587 465.284048,333.445572 487.315365,327.140282 C487.814643,326.98765 488.355966,327.156072 488.702833,327.545547 C489.044445,327.940286 489.13379,328.498183 488.928823,328.977132 C488.639767,329.656082 460.969231,393.708979 432.87825,426.919642 C439.936471,420.572248 447.015713,414.251169 454.110722,407.951143 C454.0897,407.630089 454.168533,407.303772 454.3735,407.03535 C480.53569,372.808892 544.958373,331.240299 545.604807,330.824508 C546.046274,330.54556 546.608619,330.54556 547.050086,330.813982 C547.491554,331.09293 547.733309,331.598196 547.675498,332.11925 C545.462907,351.503541 483.536616,391.887919 462.766633,404.924815 L435.274787,433.051247 C476.347006,407.524825 532.949413,376.824698 533.72198,376.408907 C534.263303,376.114169 534.93076,376.224696 535.351205,376.672066 C535.766394,377.119436 535.834716,377.798387 535.508872,378.319441 C510.91284,417.682762 441.660295,445.267087 413.71647,455.098706 L398.286139,470.888245 C447.656892,446.16709 533.700958,409.103779 534.778348,408.640619 C535.372227,408.37746 536.065961,408.587988 536.43385,409.130095 C536.796484,409.666939 536.728162,410.387995 536.265672,410.845892 C494.788775,452.072378 415.177516,476.883007 384.148677,485.356726 L372.497095,497.277828 C437.997168,470.73035 550.003712,439.814432 551.28607,439.461799 C551.885204,439.303904 552.510616,439.556537 552.820694,440.093381 C553.125516,440.624962 553.036172,441.303912 552.594705,441.735493 Z" id="Shape" fill="#D2D6ED" fill-rule="nonzero" opacity="0.973381696" transform="translate(316.500000, 537.500000) scale(-1, 1) translate(-316.500000, -537.500000) "></path>
            </g>
        </g>
    </g>
</svg>